<svg xmlns="http://www.w3.org/2000/svg" xmlns:xlink="http://www.w3.org/1999/xlink" width="192px" height="192px" viewBox="0 0 192 192" version="1.1">
<g id="surface1">
<path style=" stroke:none;fill-rule:nonzero;fill:#ffffff;fill-opacity:1;" d="M 192.191406 96 C 192.191406 44.992188 152.128906 3.167969 101.761719 0.1875 C 100.722656 0.0703125 99.683594 -0.0078125 98.621094 -0.0078125 C 98.308594 -0.0078125 97.996094 0.0234375 97.6875 0.0351562 C 97.128906 0.0234375 96.570312 -0.0078125 96 -0.0078125 C 42.960938 -0.0078125 -0.191406 43.0625 -0.191406 96 C -0.191406 148.9375 42.960938 192.007812 96 192.007812 C 96.5625 192.007812 97.128906 191.96875 97.6875 191.957031 C 97.996094 191.96875 98.308594 192.007812 98.621094 192.007812 C 99.679688 192.007812 100.714844 191.933594 101.761719 191.8125 C 152.128906 188.832031 192.191406 147.007812 192.191406 96 Z M 174.292969 126.90625 C 170.988281 125.945312 162.683594 123.863281 148.03125 122.140625 C 149.242188 113.855469 149.910156 105.101562 149.910156 96 C 149.910156 88.824219 149.496094 81.875 148.726562 75.1875 C 167.292969 72.964844 175.429688 70.175781 175.96875 69.984375 L 173.734375 63.683594 C 177.90625 73.636719 180.214844 84.550781 180.214844 96 C 180.214844 106.90625 178.105469 117.328125 174.292969 126.90625 Z M 53.527344 96 C 53.527344 89.285156 53.96875 82.726562 54.785156 76.421875 C 64.511719 77.183594 76.152344 77.753906 89.820312 77.878906 L 89.820312 119.515625 C 76.507812 119.640625 65.136719 120.179688 55.566406 120.917969 C 54.246094 113.003906 53.527344 104.628906 53.527344 95.992188 Z M 101.800781 12.792969 C 116.515625 17.058594 129.113281 37.480469 134.753906 64.558594 C 125.683594 65.28125 114.761719 65.8125 101.800781 65.933594 Z M 89.824219 12.9375 L 89.824219 65.929688 C 77.011719 65.800781 66.035156 65.273438 56.8125 64.570312 C 62.574219 37.828125 75.269531 17.554688 89.824219 12.9375 Z M 89.824219 131.476562 L 89.824219 179.050781 C 76.246094 174.742188 64.289062 156.820312 58.066406 132.738281 C 67.019531 132.078125 77.585938 131.605469 89.820312 131.476562 Z M 101.800781 179.207031 L 101.800781 131.476562 C 114.167969 131.597656 124.6875 132.089844 133.53125 132.78125 C 127.414062 157.183594 115.53125 175.234375 101.800781 179.207031 Z M 101.800781 119.519531 L 101.800781 77.886719 C 115.546875 77.761719 127.109375 77.179688 136.710938 76.386719 C 137.496094 82.703125 137.929688 89.269531 137.929688 95.992188 C 137.929688 104.644531 137.230469 113.035156 135.953125 120.953125 C 126.503906 120.1875 115.183594 119.640625 101.800781 119.515625 Z M 171.527344 58.859375 C 169.714844 59.425781 162.144531 61.578125 146.964844 63.367188 C 143.578125 45.378906 137.460938 30 129.503906 18.894531 C 147.792969 26.84375 162.714844 41.074219 171.535156 58.859375 Z M 67.277344 16.984375 C 57.484375 28.222656 49.5 44.394531 45.132812 63.511719 C 31.542969 62.039062 23.394531 60.304688 20.136719 59.519531 C 29.644531 39.898438 46.578125 24.503906 67.273438 16.992188 Z M 15.683594 70.722656 C 17.992188 71.347656 26.730469 73.523438 42.976562 75.316406 C 42.046875 81.960938 41.539062 88.878906 41.539062 96 C 41.539062 105.054688 42.355469 113.761719 43.835938 122.003906 C 29.886719 123.511719 21.304688 125.316406 17.460938 126.238281 C 13.816406 116.84375 11.796875 106.65625 11.796875 95.992188 C 11.796875 87.191406 13.164062 78.695312 15.691406 70.714844 Z M 22.703125 137.316406 C 27.066406 136.390625 34.878906 134.976562 46.441406 133.769531 C 50.992188 150.589844 58.398438 164.820312 67.277344 175.015625 C 48.316406 168.125 32.539062 154.625 22.703125 137.320312 Z M 129.496094 173.09375 C 136.667969 163.105469 142.339844 149.652344 145.867188 133.945312 C 157.757812 135.304688 165.222656 136.90625 168.984375 137.855469 C 159.984375 153.433594 146.136719 165.871094 129.496094 173.09375 Z M 129.496094 173.09375 "/>
</g>
</svg>