<svg xmlns="http://www.w3.org/2000/svg" xmlns:xlink="http://www.w3.org/1999/xlink" width="512px" height="512px" viewBox="0 0 512 512" version="1.1">
<g id="surface1">
<path style=" stroke:none;fill-rule:nonzero;fill:#ffffff;fill-opacity:1;" d="M 512.511719 256 C 512.511719 119.984375 405.679688 8.449219 271.359375 0.496094 C 268.59375 0.191406 265.824219 -0.015625 262.992188 -0.015625 C 262.160156 -0.015625 261.328125 0.0625 260.496094 0.0976562 C 259.007812 0.0625 257.519531 -0.015625 256 -0.015625 C 114.558594 -0.015625 -0.511719 114.832031 -0.511719 256 C -0.511719 397.167969 114.558594 512.015625 256 512.015625 C 257.503906 512.015625 259.007812 511.921875 260.496094 511.886719 C 261.328125 511.921875 262.160156 512.015625 262.992188 512.015625 C 265.808594 512.015625 268.574219 511.824219 271.359375 511.503906 C 405.679688 503.550781 512.511719 392.015625 512.511719 256 Z M 464.785156 338.414062 C 455.96875 335.855469 433.824219 330.304688 394.753906 325.710938 C 397.984375 303.617188 399.761719 280.273438 399.761719 256 C 399.761719 236.863281 398.65625 218.335938 396.609375 200.496094 C 446.113281 194.574219 467.808594 187.136719 469.246094 186.625 L 463.296875 169.824219 C 474.414062 196.367188 480.574219 225.472656 480.574219 256 C 480.574219 285.089844 474.945312 312.878906 464.785156 338.414062 Z M 142.734375 256 C 142.734375 238.097656 143.921875 220.609375 146.097656 203.792969 C 172.03125 205.824219 203.070312 207.34375 239.519531 207.679688 L 239.519531 318.703125 C 204.015625 319.039062 173.695312 320.480469 148.175781 322.449219 C 144.65625 301.34375 142.734375 279.007812 142.734375 255.984375 Z M 271.472656 34.113281 C 310.703125 45.488281 344.304688 99.953125 359.34375 172.160156 C 335.152344 174.078125 306.03125 175.503906 271.472656 175.824219 Z M 239.535156 34.496094 L 239.535156 175.808594 C 205.359375 175.472656 176.097656 174.0625 151.503906 172.191406 C 166.863281 100.878906 200.71875 46.816406 239.535156 34.496094 Z M 239.535156 350.609375 L 239.535156 477.472656 C 203.328125 465.984375 171.441406 418.191406 154.847656 353.96875 C 178.71875 352.207031 206.894531 350.945312 239.519531 350.609375 Z M 271.472656 477.886719 L 271.472656 350.609375 C 304.449219 350.929688 332.496094 352.238281 356.078125 354.078125 C 339.777344 419.152344 308.078125 467.296875 271.472656 477.886719 Z M 271.472656 318.71875 L 271.472656 207.695312 C 308.128906 207.359375 338.960938 205.808594 364.558594 203.695312 C 366.65625 220.542969 367.808594 238.046875 367.808594 255.984375 C 367.808594 279.054688 365.953125 301.425781 362.542969 322.542969 C 337.34375 320.496094 307.152344 319.039062 271.472656 318.703125 Z M 457.40625 156.960938 C 452.574219 158.464844 432.382812 164.207031 391.902344 168.976562 C 382.878906 121.007812 366.558594 80 345.34375 50.382812 C 394.113281 71.585938 433.902344 109.535156 457.425781 156.960938 Z M 179.40625 45.296875 C 153.296875 75.265625 132 118.382812 120.351562 169.359375 C 84.113281 165.441406 62.382812 160.816406 53.695312 158.71875 C 79.054688 106.398438 124.207031 65.34375 179.390625 45.3125 Z M 41.824219 188.59375 C 47.984375 190.257812 71.28125 196.0625 114.609375 200.847656 C 112.128906 218.558594 110.769531 237.007812 110.769531 256 C 110.769531 280.144531 112.945312 303.359375 116.894531 325.34375 C 79.695312 329.359375 56.816406 334.175781 46.558594 336.640625 C 36.847656 311.585938 31.457031 284.414062 31.457031 255.984375 C 31.457031 232.511719 35.105469 209.855469 41.839844 188.574219 Z M 60.542969 366.175781 C 72.175781 363.710938 93.007812 359.9375 123.839844 356.71875 C 135.984375 401.566406 155.726562 439.519531 179.40625 466.703125 C 128.847656 448.335938 86.769531 412.335938 60.542969 366.191406 Z M 345.328125 461.585938 C 364.449219 434.945312 379.566406 399.070312 388.976562 357.183594 C 420.6875 360.816406 440.59375 365.089844 450.625 367.617188 C 426.625 409.152344 389.695312 442.320312 345.328125 461.585938 Z M 345.328125 461.585938 "/>
</g>
</svg>