<?xml version="1.0" standalone="no"?>
<!DOCTYPE svg PUBLIC "-//W3C//DTD SVG 20010904//EN"
 "http://www.w3.org/TR/2001/REC-SVG-20010904/DTD/svg10.dtd">
<svg version="1.0" xmlns="http://www.w3.org/2000/svg"
 width="170.000000pt" height="170.000000pt" viewBox="0 0 170.000000 170.000000"
 preserveAspectRatio="xMidYMid meet">

<g transform="translate(0.000000,170.000000) scale(0.100000,-0.100000)"
fill="#000000" stroke="none">
<path d="M660 1619 c0 -5 5 -7 10 -4 6 3 10 8 10 11 0 2 -4 4 -10 4 -5 0 -10
-5 -10 -11z"/>
<path d="M644 1595 c9 -14 14 -31 10 -38 -5 -9 -4 -9 6 0 11 11 11 17 0 38 -7
14 -18 25 -23 25 -5 0 -2 -11 7 -25z"/>
<path d="M598 1573 c7 -3 16 -2 19 1 4 3 -2 6 -13 5 -11 0 -14 -3 -6 -6z"/>
<path d="M525 1560 c3 -5 12 -7 20 -3 21 7 19 13 -6 13 -11 0 -18 -4 -14 -10z"/>
<path d="M450 1525 c-7 -8 -8 -15 -2 -15 5 0 15 7 22 15 7 8 8 15 2 15 -5 0
-15 -7 -22 -15z"/>
<path d="M410 1495 c-11 -13 -10 -14 4 -9 9 3 16 10 16 15 0 13 -6 11 -20 -6z"/>
<path d="M357 1464 c3 -7 9 -14 14 -14 14 0 10 17 -5 23 -10 4 -13 1 -9 -9z"/>
<path d="M1340 1469 c0 -5 5 -7 10 -4 6 3 10 8 10 11 0 2 -4 4 -10 4 -5 0 -10
-5 -10 -11z"/>
<path d="M1450 1436 c0 -2 8 -10 18 -17 15 -13 16 -12 3 4 -13 16 -21 21 -21
13z"/>
<path d="M285 1380 c-4 -6 -10 -8 -14 -5 -5 2 -16 -4 -25 -14 -15 -16 -15 -18
0 -18 9 0 27 11 40 24 13 13 19 23 14 23 -5 0 -12 -5 -15 -10z"/>
<path d="M1425 1334 c8 -13 15 -30 15 -39 0 -9 4 -13 10 -10 6 4 5 16 -5 34
-8 16 -12 31 -10 33 3 3 -2 5 -10 5 -13 0 -13 -3 0 -23z"/>
<path d="M194 1296 c-10 -8 -16 -17 -13 -20 3 -4 17 2 30 13 27 23 13 28 -17
7z"/>
<path d="M344 1225 c-17 -13 -17 -14 -2 -15 9 0 20 5 23 11 11 17 0 20 -21 4z"/>
<path d="M295 1210 c-3 -6 1 -7 9 -4 18 7 21 14 7 14 -6 0 -13 -4 -16 -10z"/>
<path d="M170 1163 c0 -10 7 -26 14 -36 21 -27 30 -2 10 28 -19 30 -24 31 -24
8z"/>
<path d="M135 1140 c-3 -5 -1 -10 4 -10 6 0 11 5 11 10 0 6 -2 10 -4 10 -3 0
-8 -4 -11 -10z"/>
<path d="M242 1098 c-8 -10 -4 -13 14 -14 20 -2 23 1 13 12 -14 17 -14 17 -27
2z"/>
<path d="M90 1089 c0 -5 5 -7 10 -4 6 3 10 8 10 11 0 2 -4 4 -10 4 -5 0 -10
-5 -10 -11z"/>
<path d="M326 1082 c-3 -5 1 -9 9 -9 8 0 15 4 15 9 0 4 -4 8 -9 8 -6 0 -12 -4
-15 -8z"/>
<path d="M1455 1080 c4 -6 11 -8 16 -5 14 9 11 15 -7 15 -8 0 -12 -5 -9 -10z"/>
<path d="M332 955 c6 -14 15 -25 20 -25 11 0 10 7 -2 31 -16 28 -32 23 -18 -6z"/>
<path d="M573 972 c-8 -5 -7 -11 3 -19 15 -14 27 -3 16 14 -4 7 -13 9 -19 5z"/>
<path d="M420 801 c0 -6 4 -13 10 -16 6 -3 7 1 4 9 -7 18 -14 21 -14 7z"/>
<path d="M1395 793 c1 -10 8 -17 15 -15 8 2 11 -4 7 -18 -3 -13 0 -20 9 -20
29 0 1 69 -28 70 -3 0 -5 -8 -3 -17z"/>
<path d="M891 736 c-7 -8 -8 -17 -3 -20 6 -3 13 1 16 10 9 23 2 28 -13 10z"/>
<path d="M1410 715 c0 -7 30 -13 34 -7 3 4 -4 9 -15 9 -10 1 -19 0 -19 -2z"/>
<path d="M1160 663 c0 -11 73 -83 84 -83 11 0 -28 47 -58 71 -14 11 -26 17
-26 12z"/>
<path d="M1446 624 c-16 -23 -15 -24 6 -23 13 1 32 -2 43 -6 14 -5 16 -4 7 3
-8 5 -13 12 -13 16 5 34 -23 41 -43 10z"/>
<path d="M1130 635 c0 -5 9 -23 20 -40 11 -16 20 -23 20 -15 0 17 -39 71 -40
55z"/>
<path d="M1360 625 c0 -8 10 -10 25 -7 36 7 39 19 5 19 -17 0 -30 -6 -30 -12z"/>
<path d="M1603 633 c4 -3 2 -12 -4 -20 -9 -9 -8 -13 0 -13 6 0 11 2 11 4 0 2
3 11 6 20 4 10 1 16 -7 16 -7 0 -9 -3 -6 -7z"/>
<path d="M1376 575 c-3 -8 -1 -15 4 -15 13 0 22 18 11 24 -5 3 -11 -1 -15 -9z"/>
<path d="M1409 533 c-13 -16 -12 -17 4 -4 16 13 21 21 13 21 -2 0 -10 -8 -17
-17z"/>
<path d="M1358 523 c7 -3 16 -2 19 1 4 3 -2 6 -13 5 -11 0 -14 -3 -6 -6z"/>
<path d="M1419 303 c-13 -16 -12 -17 4 -4 16 13 21 21 13 21 -2 0 -10 -8 -17
-17z"/>
</g>
</svg>
