<?xml version="1.0" standalone="no"?>
<!DOCTYPE svg PUBLIC "-//W3C//DTD SVG 20010904//EN"
 "http://www.w3.org/TR/2001/REC-SVG-20010904/DTD/svg10.dtd">
<svg version="1.0" xmlns="http://www.w3.org/2000/svg"
 width="170.000000pt" height="170.000000pt" viewBox="0 0 170.000000 170.000000"
 preserveAspectRatio="xMidYMid meet">

<g transform="translate(0.000000,170.000000) scale(0.100000,-0.100000)"
fill="#000000" stroke="none">
<path d="M743 1681 c-372 -60 -644 -330 -709 -705 -39 -226 46 -494 213 -672
234 -249 596 -330 918 -205 328 127 544 462 522 811 -27 426 -365 755 -796
774 -53 3 -119 1 -148 -3z m304 -51 c91 -21 184 -61 253 -108 41 -29 44 -33
41 -70 -2 -36 0 -40 28 -50 35 -12 91 -69 91 -92 0 -8 -9 0 -20 18 -11 17 -23
32 -26 32 -3 0 1 -11 10 -25 22 -33 20 -80 -3 -102 -23 -22 -30 -55 -14 -74
17 -21 20 -51 6 -56 -7 -3 -13 3 -13 12 0 30 -31 66 -52 60 -10 -4 -18 -3 -17
2 4 23 -3 25 -17 5 -18 -26 -10 -45 17 -37 21 7 25 -5 7 -23 -9 -9 -6 -17 11
-36 13 -14 21 -31 18 -39 -3 -8 -1 -19 4 -24 7 -7 4 -24 -8 -49 -18 -38 -56
-65 -98 -70 -11 -1 -23 -3 -26 -3 -20 -3 -16 -36 6 -63 30 -36 31 -55 4 -84
l-20 -21 -30 30 c-25 24 -33 28 -40 16 -14 -22 -11 -35 15 -66 29 -35 44 -77
25 -71 -19 6 -59 87 -59 119 0 15 -5 40 -10 54 -9 23 -13 25 -25 15 -8 -7 -15
-11 -16 -9 0 2 -2 11 -4 21 -1 9 -13 30 -26 47 -18 24 -26 28 -41 20 -10 -5
-18 -7 -18 -4 0 3 -22 -18 -48 -45 -36 -37 -49 -58 -49 -80 0 -28 -17 -60 -33
-60 -11 0 -60 115 -67 155 -5 29 -8 33 -20 24 -11 -10 -19 -6 -41 20 -24 29
-33 33 -86 35 -33 2 -62 8 -63 13 -2 6 -15 8 -28 5 -17 -3 -31 4 -49 22 -34
38 -43 14 -10 -29 30 -39 36 -42 55 -19 11 14 13 14 21 0 5 -9 15 -16 23 -16
51 0 -2 -79 -78 -114 -79 -37 -87 -37 -102 7 -7 21 -20 46 -29 56 -9 10 -16
23 -16 30 0 14 -41 71 -51 71 -14 0 63 -155 95 -192 31 -35 35 -37 66 -28 19
5 36 8 38 5 9 -9 -23 -71 -58 -110 -77 -87 -73 -80 -59 -122 22 -66 20 -81
-12 -100 -19 -11 -27 -23 -24 -33 6 -20 -22 -79 -41 -87 -26 -10 -59 6 -78 39
-10 18 -30 53 -44 78 -14 24 -27 64 -28 89 -2 24 -13 63 -24 86 -11 23 -20 52
-20 66 0 28 -35 63 -55 55 -33 -12 -33 277 0 314 24 27 55 32 55 10 0 -10 12
-25 26 -35 23 -15 27 -15 37 -1 9 13 19 14 43 7 46 -13 84 -3 95 26 14 37 12
41 -23 39 -38 -3 -58 9 -58 35 0 12 -5 16 -15 13 -10 -4 -13 -13 -10 -24 3
-10 1 -21 -4 -24 -5 -4 -12 6 -16 21 -3 16 -14 39 -25 53 -19 25 -20 25 -20 3
0 -12 5 -25 10 -28 15 -9 12 -41 -5 -55 -10 -9 -15 -9 -15 -1 0 6 5 11 10 11
17 0 11 26 -9 44 -18 17 -20 17 -41 -4 l-22 -22 7 24 c21 66 65 134 99 152 19
10 47 36 61 57 14 22 30 39 37 39 6 0 8 3 5 6 -4 4 -13 1 -22 -6 -23 -19 -20
15 3 38 44 42 96 82 109 82 21 0 15 -10 -12 -20 -23 -9 -36 -30 -17 -30 12 1
62 48 62 60 0 6 5 8 11 5 5 -4 18 -1 27 7 23 19 102 48 132 48 19 0 21 3 11 9
-14 9 -9 41 8 41 14 0 42 -50 35 -63 -5 -9 -3 -8 7 1 11 10 11 16 1 32 -14 23
-15 31 -4 28 4 -1 18 4 31 11 56 31 226 31 358 1z m-822 -301 c-9 -17 -19 -29
-22 -26 -5 5 25 57 33 57 3 0 -3 -14 -11 -31z m1285 -109 c0 -4 -7 -10 -15
-14 -11 -4 -15 2 -15 21 0 21 2 24 15 13 8 -7 15 -16 15 -20z m3 -76 c7 -42
-12 -65 -45 -56 -17 4 -16 7 7 29 19 19 23 32 18 51 -4 16 -2 23 4 19 6 -4 13
-23 16 -43z m-53 -79 c0 -8 -2 -15 -4 -15 -2 0 -6 7 -10 15 -3 8 -1 15 4 15 6
0 10 -7 10 -15z m-73 -137 c-3 -8 -6 -5 -6 6 -1 11 2 17 5 13 3 -3 4 -12 1
-19z m-107 -52 c0 -3 -4 -8 -10 -11 -5 -3 -10 -1 -10 4 0 6 5 11 10 11 6 0 10
-2 10 -4z m126 -32 c-3 -9 -6 -21 -6 -27 0 -8 -3 -8 -10 -1 -12 12 -3 44 12
44 6 0 7 -7 4 -16z m11 -86 c-3 -8 -6 -5 -6 6 -1 11 2 17 5 13 3 -3 4 -12 1
-19z m30 -32 c-4 -10 -13 -13 -23 -9 -15 6 -15 7 1 20 21 15 30 10 22 -11z
m-522 -14 c0 -18 -20 -15 -23 4 -3 10 1 15 10 12 7 -3 13 -10 13 -16z m440
-40 c-3 -44 -28 -92 -47 -92 -10 0 -27 9 -38 20 l-21 21 48 43 c26 24 51 42
54 40 4 -2 6 -17 4 -32z m-188 -36 c39 -37 54 -58 50 -70 -10 -26 -25 -19 -56
27 -17 23 -39 54 -51 70 -36 46 -2 30 57 -27z m223 4 c0 -5 -5 -10 -11 -10 -5
0 -7 5 -4 10 3 6 8 10 11 10 2 0 4 -4 4 -10z m128 -18 c20 20 62 -7 62 -39 0
-22 -2 -25 -10 -13 -9 13 -11 13 -20 0 -9 -13 -13 -12 -27 8 -8 12 -21 22 -27
22 -7 0 -12 10 -13 23 -2 20 -1 20 11 5 9 -13 16 -14 24 -6z m-122 -27 c2 -20
-1 -23 -11 -15 -10 8 -14 7 -18 -2 -3 -7 -6 -1 -6 15 -1 37 33 39 35 2z m-98
-59 c10 -11 -3 -13 -40 -8 -21 2 -38 8 -38 12 0 9 69 5 78 -4z m216 -109 c-40
-61 -114 -136 -128 -131 -6 2 -42 -9 -79 -26 -79 -36 -81 -36 -67 -10 6 12 10
28 9 38 -6 39 11 68 53 91 24 13 56 38 72 55 16 17 34 31 40 31 6 0 21 10 34
23 28 28 42 28 39 1 -4 -36 22 -34 36 3 l12 33 3 -33 c2 -24 -5 -46 -24 -75z
m-994 32 c0 -20 -23 -104 -31 -113 -5 -5 -14 -4 -23 3 -23 19 -14 83 13 95 11
5 21 13 21 18 0 4 5 8 10 8 6 0 10 -5 10 -11z"/>
<path d="M477 1242 c-21 -23 -22 -46 -1 -63 10 -8 13 -21 10 -36 -5 -18 -1
-24 19 -29 14 -4 28 -4 31 -1 9 8 -19 81 -36 94 -13 10 -13 12 3 18 20 8 23
35 4 35 -8 0 -21 -8 -30 -18z"/>
<path d="M347 1229 c-9 -6 -15 -14 -12 -20 4 -5 2 -9 -4 -9 -5 0 -12 6 -15 13
-7 18 -36 -21 -36 -50 0 -21 2 -23 23 -12 12 7 39 12 60 10 41 -2 50 16 17 37
-11 7 -17 18 -14 27 7 18 5 18 -19 4z"/>
</g>
</svg>
